<svg width="178" height="178" viewBox="0 0 178 178" fill="none" xmlns="http://www.w3.org/2000/svg">
<path d="M166.691 96.2676L159.018 92.766L159.248 90.8478L169.329 89.0968L169.105 90.9595L160.893 92.0605L168.548 95.6021L168.338 97.3535L160.066 98.955L167.784 101.968L167.56 103.831L158.182 99.73L158.412 97.8118L166.691 96.2676Z" fill="#1B1B1B"/>
<path d="M159.782 109.716L158.525 113.31L163.347 112.965L159.782 109.716ZM158.763 108.811L156.772 106.957L157.391 105.187L165.167 112.637L164.557 114.382L153.837 115.349L154.456 113.578L157.183 113.33L158.763 108.811Z" fill="#1B1B1B"/>
<path d="M158.518 125.111L160.288 121.931L161.462 122.584L157.085 130.45L155.911 129.797L157.674 126.628L150.285 122.517L151.129 121L158.518 125.111Z" fill="#1B1B1B"/>
<path d="M144.659 136.44L143.52 137.86C142.798 137.208 142.376 136.445 142.253 135.568C142.171 134.94 142.267 134.329 142.541 133.734C142.814 133.14 143.258 132.461 143.871 131.697C144.408 131.027 144.954 130.489 145.507 130.083C146.047 129.679 146.711 129.44 147.5 129.367C148.762 129.255 150.019 129.702 151.271 130.707C152.516 131.706 153.219 132.85 153.38 134.141C153.544 135.457 153.054 136.829 151.909 138.255C151.038 139.34 150.149 140.038 149.24 140.35C148.19 140.704 147.196 140.571 146.259 139.95L147.398 138.53C147.928 138.884 148.476 138.977 149.042 138.808C149.679 138.626 150.281 138.181 150.848 137.475C151.572 136.573 151.885 135.675 151.788 134.783C151.684 133.838 151.145 132.975 150.169 132.192C149.172 131.392 148.18 131.032 147.193 131.114C146.353 131.206 145.577 131.696 144.864 132.584C144.239 133.363 143.907 134.059 143.868 134.675C143.844 135.361 144.108 135.95 144.659 136.44Z" fill="#1B1B1B"/>
<path d="M140.498 142.709L137.551 139.298L138.864 138.163L145.272 145.577L143.959 146.712L141.377 143.725L137.077 147.442L139.658 150.429L138.345 151.564L131.937 144.15L133.25 143.015L136.198 146.425L140.498 142.709Z" fill="#1B1B1B"/>
<path d="M122.564 152.176L123.528 160.794L121.834 161.664L120.918 151.117L122.711 150.196L130.763 157.077L128.995 157.985L122.564 152.176Z" fill="#1B1B1B"/>
<path d="M117.577 163.375L115.947 163.973L112.574 154.772L114.204 154.174L117.577 163.375Z" fill="#1B1B1B"/>
<path d="M109.569 164.695L108.024 157.753L105.851 158.236C104.558 158.524 103.65 159.042 103.128 159.789C102.62 160.514 102.494 161.451 102.749 162.599C102.994 163.701 103.476 164.469 104.194 164.902C104.963 165.39 106.016 165.486 107.356 165.188L109.569 164.695ZM111.529 165.636L107.497 166.533C105.557 166.965 104.046 166.837 102.966 166.15C101.941 165.499 101.268 164.449 100.945 163C100.619 161.533 100.788 160.277 101.454 159.23C101.89 158.568 102.449 158.071 103.13 157.738C103.811 157.404 104.671 157.122 105.71 156.891L109.399 156.07L111.529 165.636Z" fill="#1B1B1B"/>
<path d="M95.1328 164.441L89.3001 164.689L89.2431 163.346L95.0758 163.098L94.9487 160.105L88.1648 160.393L88.1077 159.05L96.5981 158.689L97.014 168.481L88.7055 168.833L88.6484 167.491L95.2505 167.21L95.1328 164.441Z" fill="#1B1B1B"/>
<path d="M75.673 165.719C76.2347 166.452 77.0741 166.902 78.1914 167.066C79.3087 167.231 80.242 167.043 80.9915 166.503C81.7967 165.904 82.2885 165 82.4668 163.791C82.6451 162.581 82.4351 161.574 81.8368 160.769C81.2751 160.035 80.4356 159.586 79.3184 159.421C78.2011 159.256 77.2677 159.444 76.5182 159.985C75.713 160.583 75.2213 161.487 75.043 162.696C74.8647 163.906 75.0747 164.913 75.673 165.719ZM74.1219 166.353C73.2871 165.296 72.9847 163.987 73.2147 162.427C73.4448 160.866 74.1119 159.701 75.2162 158.929C76.3615 158.136 77.7928 157.866 79.5103 158.119C81.2369 158.373 82.5295 159.045 83.3879 160.134C84.2227 161.191 84.525 162.5 84.295 164.06C84.065 165.621 83.3978 166.787 82.2936 167.558C81.1575 168.353 79.7262 168.623 77.9995 168.368C76.282 168.115 74.9895 167.443 74.1219 166.353Z" fill="#1B1B1B"/>
<path d="M44.5472 153.524L51.2911 148.459L52.8658 149.578L49.5845 159.269L48.0555 158.182L51.0142 150.443L44.2441 155.473L42.8063 154.451L45.3543 146.42L39.0179 151.758L37.4888 150.672L45.5741 144.395L47.1489 145.514L44.5472 153.524Z" fill="#1B1B1B"/>
<path d="M36.1306 141.12L33.5579 138.312L31.5817 142.725L36.1306 141.12ZM37.4095 140.651L39.9845 139.772L41.252 141.155L31.0096 144.483L29.761 143.121L33.9783 133.218L35.2458 134.601L34.1747 137.121L37.4095 140.651Z" fill="#1B1B1B"/>
<path d="M23.1742 132.725L25.1395 135.788L24.0082 136.514L19.148 128.937L20.2793 128.211L22.237 131.263L29.3546 126.698L30.2919 128.159L23.1742 132.725Z" fill="#1B1B1B"/>
<path d="M19.7471 115.139L19.0381 113.462C19.9539 113.136 20.8265 113.126 21.656 113.434C22.2481 113.66 22.7408 114.034 23.1342 114.557C23.5275 115.08 23.9151 115.793 24.2969 116.695C24.6313 117.486 24.846 118.221 24.9408 118.9C25.0406 119.568 24.9356 120.266 24.6257 120.995C24.1251 122.159 23.1355 123.054 21.657 123.679C20.1871 124.301 18.846 124.377 17.6337 123.906C16.3969 123.426 15.4222 122.344 14.7096 120.659C14.1679 119.378 13.9753 118.264 14.1317 117.316C14.3183 116.224 14.9073 115.412 15.8989 114.881L16.6079 116.557C16.0451 116.856 15.7036 117.295 15.5832 117.873C15.4416 118.52 15.5472 119.261 15.8999 120.095C16.3507 121.161 16.992 121.862 17.8238 122.2C18.7045 122.557 19.7207 122.492 20.8726 122.004C22.0503 121.506 22.8373 120.804 23.2338 119.896C23.5513 119.113 23.4882 118.197 23.0446 117.149C22.6556 116.229 22.1996 115.606 21.6766 115.28C21.0839 114.933 20.4407 114.886 19.7471 115.139Z" fill="#1B1B1B"/>
<path d="M16.2074 108.545L20.6114 107.583L20.9821 109.279L11.4081 111.371L11.0374 109.676L14.8944 108.832L13.6806 103.28L9.82366 104.123L9.45295 102.427L19.0269 100.334L19.3976 102.03L14.9936 102.993L16.2074 108.545Z" fill="#1B1B1B"/>
<path d="M16.4172 88.2255L8.38474 84.9587L8.42883 83.0552L18.1335 87.285L18.0868 89.3005L8.19638 93.0905L8.24242 91.103L16.4172 88.2255Z" fill="#1B1B1B"/>
<path d="M8.93014 78.4564L9.1833 76.7389L18.8785 78.1681L18.6254 79.8855L8.93014 78.4564Z" fill="#1B1B1B"/>
<path d="M11.5948 70.6352L18.4302 72.5992L19.0449 70.4598C19.411 69.186 19.3907 68.1411 18.9843 67.3251C18.5906 66.5323 17.8286 65.9734 16.6983 65.6487C15.6129 65.3368 14.7084 65.3925 13.9847 65.8158C13.1879 66.2569 12.6 67.1367 12.2211 68.4554L11.5948 70.6352ZM9.83137 71.9056L10.9719 67.9362C11.5209 66.0255 12.3555 64.7601 13.4757 64.14C14.5381 63.5519 15.7824 63.4627 17.2087 63.8725C18.6529 64.2875 19.6755 65.0378 20.2764 66.1233C20.6485 66.8225 20.8179 67.551 20.7847 68.3086C20.7515 69.0662 20.588 69.9564 20.2942 70.979L19.2503 74.612L9.83137 71.9056Z" fill="#1B1B1B"/>
<path d="M18.5939 58.271L21.1647 53.0294L22.3713 53.6213L19.8006 58.8628L22.4905 60.1821L25.4804 54.0858L26.6871 54.6776L22.9451 62.3074L14.1464 57.992L17.8083 50.5256L19.0149 51.1175L16.1051 57.0503L18.5939 58.271Z" fill="#1B1B1B"/>
<path d="M26.4751 40.8937C25.5628 41.0408 24.7695 41.5673 24.0952 42.4732C23.4209 43.3792 23.1443 44.2902 23.2652 45.2063C23.4107 46.1988 23.9739 47.0601 24.9547 47.7901C25.9355 48.5201 26.9222 48.8124 27.9147 48.6669C28.827 48.5198 29.6203 47.9933 30.2945 47.0874C30.9688 46.1815 31.2455 45.2704 31.1246 44.3543C30.9791 43.3618 30.4159 42.5005 29.4351 41.7705C28.4543 41.0405 27.4676 40.7482 26.4751 40.8937ZM26.651 39.2271C27.9773 38.9926 29.2732 39.3463 30.5385 40.2881C31.8038 41.2298 32.5145 42.3696 32.6706 43.7075C32.8269 45.092 32.3867 46.4805 31.3502 47.8731C30.3081 49.2732 29.1043 50.0934 27.7388 50.3336C26.4124 50.568 25.1166 50.2143 23.8513 49.2726C22.586 48.3308 21.8753 47.191 21.7192 45.8531C21.5573 44.4761 21.9975 43.0876 23.0396 41.6875C24.0761 40.2949 25.2799 39.4747 26.651 39.2271Z" fill="#1B1B1B"/>
<path d="M56.2734 16.947L57.0442 25.3462L55.2648 26.0988L48.7395 18.2183L50.4673 17.4875L55.5006 24.0686L54.7739 15.6659L56.3986 14.9788L61.896 21.3636L60.6794 13.1681L62.4072 12.4373L63.5041 22.6139L61.7248 23.3665L56.2734 16.947Z" fill="#1B1B1B"/>
<path d="M71.0967 16.2902L74.84 15.5911L72.1397 11.5807L71.0967 16.2902ZM70.8188 17.6239L70.2029 20.274L68.3588 20.6185L70.9496 10.1651L72.7662 9.8258L78.9418 18.6418L77.0977 18.9863L75.5254 16.7448L70.8188 17.6239Z" fill="#1B1B1B"/>
<path d="M85.1119 9.66354L81.4723 9.71974L81.4515 8.3759L90.4525 8.23691L90.4732 9.58075L86.8477 9.63674L86.9782 18.0917L85.2424 18.1185L85.1119 9.66354Z" fill="#1B1B1B"/>
<path d="M102.392 16.0466L104.189 16.3327C103.981 17.2825 103.527 18.0277 102.827 18.5684C102.322 18.9511 101.743 19.1709 101.092 19.2278C100.44 19.2847 99.63 19.2362 98.6622 19.0821C97.8142 18.9471 97.077 18.74 96.4504 18.4607C95.8316 18.1921 95.295 17.7334 94.8407 17.0845C94.1181 16.0433 93.8829 14.73 94.1353 13.1447C94.3862 11.5685 95.032 10.3907 96.0728 9.6113C97.135 8.81639 98.5694 8.56272 100.376 8.85029C101.749 9.0689 102.797 9.4955 103.518 10.1301C104.346 10.8667 104.722 11.7961 104.648 12.9184L102.85 12.6323C102.895 11.9967 102.704 11.4748 102.277 11.0667C101.803 10.6037 101.118 10.301 100.224 10.1587C99.0814 9.9768 98.1467 10.1493 97.4201 10.6763C96.6509 11.2344 96.1679 12.1309 95.9713 13.366C95.7703 14.6288 95.9498 15.6686 96.5096 16.4854C97.0057 17.1692 97.8159 17.6006 98.9404 17.7796C99.9267 17.9366 100.697 17.8796 101.25 17.6086C101.858 17.2896 102.239 16.7689 102.392 16.0466Z" fill="#1B1B1B"/>
<path d="M109.964 16.5461L108.443 20.7901L106.809 20.2047L110.114 10.9787L111.748 11.5641L110.417 15.2808L115.768 17.1975L117.099 13.4807L118.733 14.0661L115.429 23.2921L113.795 22.7068L115.315 18.4628L109.964 16.5461Z" fill="#1B1B1B"/>
<path d="M126.804 27.3154L133.83 22.2323L135.421 23.2778L126.693 29.2693L125.008 28.1622L127.032 17.7656L128.693 18.8573L126.804 27.3154Z" fill="#1B1B1B"/>
<path d="M139.199 26.2355L140.521 27.3611L134.167 34.8222L132.845 33.6966L139.199 26.2355Z" fill="#1B1B1B"/>
<path d="M144.386 32.6043L139.107 37.371L140.599 39.0231C141.488 40.0067 142.386 40.5414 143.293 40.6273C144.174 40.7118 145.051 40.3599 145.924 39.5717C146.762 38.8148 147.193 38.0173 147.216 37.1793C147.262 36.2697 146.825 35.3058 145.906 34.2875L144.386 32.6043ZM144.238 30.436L147.006 33.501C148.339 34.9764 148.972 36.3535 148.907 37.6321C148.846 38.8449 148.264 39.9486 147.163 40.9432C146.047 41.9504 144.87 42.4224 143.631 42.3593C142.841 42.3058 142.133 42.0649 141.507 41.6366C140.881 41.2082 140.212 40.5992 139.499 39.8096L136.965 37.0042L144.238 30.436Z" fill="#1B1B1B"/>
<path d="M151.251 45.1578L154.348 50.1061L153.209 50.8193L150.112 45.8709L147.572 47.4606L151.175 53.2159L150.036 53.9291L145.527 46.726L153.833 41.526L158.246 48.5748L157.107 49.288L153.6 43.6869L151.251 45.1578Z" fill="#1B1B1B"/>
<path d="M161.91 61.1702C162.267 60.3181 162.24 59.3664 161.827 58.3151C161.415 57.2639 160.788 56.5474 159.946 56.1658C159.027 55.7646 157.998 55.7873 156.86 56.234C155.722 56.6806 154.952 57.3637 154.551 58.2831C154.193 59.1352 154.221 60.087 154.633 61.1382C155.046 62.1895 155.673 62.906 156.515 63.2876C157.434 63.6888 158.463 63.666 159.601 63.2194C160.739 62.7727 161.509 62.0897 161.91 61.1702ZM163.232 62.2006C162.73 63.4504 161.744 64.3634 160.276 64.9396C158.808 65.5159 157.465 65.5166 156.246 64.9419C154.989 64.3426 154.043 63.235 153.408 61.619C152.771 59.9943 152.711 58.5389 153.229 57.2528C153.731 56.0029 154.716 55.0899 156.185 54.5137C157.653 53.9375 158.996 53.9368 160.214 54.5115C161.469 55.102 162.415 56.2097 163.052 57.8344C163.687 59.4504 163.746 60.9058 163.232 62.2006Z" fill="#1B1B1B"/>
</svg>
