<svg width="153" height="21" viewBox="0 0 153 21" fill="none" xmlns="http://www.w3.org/2000/svg">
<path d="M4.01604 0.917969H6.76604C5.97404 2.5753 5.34337 4.10797 4.87404 5.51597C4.25804 7.36397 3.95004 9.10197 3.95004 10.73C3.95004 12.3726 4.25071 14.118 4.85204 15.966C5.40937 17.594 6.04737 19.1706 6.76604 20.696H4.01604C3.29737 19.5813 2.49071 18.0486 1.59604 16.098C0.892039 14.3233 0.540039 12.578 0.540039 10.862C0.540039 9.23397 0.943372 7.33464 1.75004 5.16397C2.35137 3.77064 3.10671 2.3553 4.01604 0.917969Z" fill="#1B1B1B"/>
<path d="M13.8836 7.86997H22.6836V10.422H13.8836V14.404H24.3336V17H10.4736V1.59997H24.0696V4.19597H13.8836V7.86997Z" fill="#1B1B1B"/>
<path d="M36.5088 11.61L38.5328 13.238C39.5008 12.27 39.9848 10.9426 39.9848 9.25597C39.9848 7.53997 39.5155 6.19064 38.5768 5.20797C37.6088 4.23997 36.2962 3.75597 34.6388 3.75597C32.9815 3.75597 31.6835 4.27663 30.7448 5.31797C29.8062 6.34464 29.3368 7.75997 29.3368 9.56397C29.3368 11.236 29.8062 12.5413 30.7448 13.48C31.7128 14.448 33.0108 14.932 34.6388 14.932C35.6068 14.932 36.4502 14.7486 37.1688 14.382L35.4088 12.952L36.5088 11.61ZM40.9748 15.262L42.9768 16.934L41.6788 18.54L39.1488 16.494C38.4008 16.8753 37.6968 17.1246 37.0368 17.242C36.3915 17.374 35.5995 17.44 34.6608 17.44C34.0155 17.44 33.4508 17.418 32.9668 17.374C32.4975 17.3446 31.9402 17.264 31.2948 17.132C30.6642 17 30.0628 16.78 29.4908 16.472C28.9188 16.164 28.3908 15.7753 27.9068 15.306C26.4402 13.8393 25.7068 11.896 25.7068 9.47597C25.7068 6.98263 26.5208 4.9733 28.1488 3.44797C29.7622 1.92263 31.9695 1.15997 34.7708 1.15997C37.3962 1.15997 39.5082 1.8493 41.1068 3.22797C42.7788 4.69463 43.6148 6.63797 43.6148 9.05797C43.6148 10.4366 43.3728 11.6686 42.8888 12.754C42.4342 13.766 41.7962 14.602 40.9748 15.262Z" fill="#1B1B1B"/>
<path d="M46.4594 0.917969H49.2094C50.1187 2.3553 50.874 3.77064 51.4754 5.16397C52.282 7.33464 52.6854 9.23397 52.6854 10.862C52.6854 12.578 52.3334 14.3233 51.6294 16.098C50.7347 18.0486 49.928 19.5813 49.2094 20.696H46.4594C47.178 19.1706 47.816 17.594 48.3734 15.966C48.9747 14.118 49.2754 12.3726 49.2754 10.73C49.2754 9.10197 48.9674 7.36397 48.3514 5.51597C47.882 4.10797 47.2514 2.5753 46.4594 0.917969Z" fill="#1B1B1B"/>
<path d="M60.3396 12.05H63.8816V12.138C63.8816 13.1206 64.2703 13.8466 65.0476 14.316C65.737 14.712 66.7123 14.91 67.9736 14.91C69.191 14.91 70.1003 14.756 70.7017 14.448C71.4643 14.0373 71.8456 13.4506 71.8456 12.688C71.8456 12.0426 71.5157 11.5293 70.8557 11.148C70.5037 10.928 69.675 10.6933 68.3697 10.444L66.3896 10.092C65.4216 9.91597 64.725 9.78397 64.2996 9.69597C63.8743 9.5933 63.3903 9.4393 62.8476 9.23397C62.3196 9.02864 61.909 8.79397 61.6157 8.52997C60.9263 7.91397 60.5816 7.05597 60.5816 5.95597C60.5816 4.32797 61.2783 3.08863 62.6716 2.23797C63.889 1.50464 65.5243 1.13797 67.5777 1.13797C69.7043 1.13797 71.3763 1.46064 72.5937 2.10597C74.0457 2.91263 74.7717 4.15197 74.7717 5.82397H71.2956C71.2663 5.0173 70.8703 4.41597 70.1077 4.01997C69.521 3.71197 68.6483 3.55797 67.4896 3.55797C66.5363 3.55797 65.7663 3.70464 65.1796 3.99797C64.4023 4.39397 64.0136 4.93664 64.0136 5.62597C64.0136 6.28597 64.4096 6.76997 65.2016 7.07797C65.5683 7.2393 66.573 7.4593 68.2157 7.73797L69.9537 8.02397C71.8163 8.34663 73.129 8.78664 73.8916 9.34397C74.8596 10.092 75.3437 11.1406 75.3437 12.49C75.3437 14.3233 74.647 15.658 73.2536 16.494C72.227 17.11 70.6063 17.418 68.3916 17.418C65.9277 17.418 64.1383 17.154 63.0236 16.626C61.2343 15.79 60.3396 14.2866 60.3396 12.116V12.05Z" fill="#1B1B1B"/>
<path d="M81.0351 4.23997H75.4911V1.59997H89.9671V4.23997H84.4451V17H81.0351V4.23997Z" fill="#1B1B1B"/>
<path d="M106.7 1.59997V10.95C106.7 13.018 106.158 14.58 105.072 15.636C103.899 16.7946 101.963 17.374 99.2642 17.374C96.5655 17.374 94.6295 16.7946 93.4562 15.636C92.3708 14.58 91.8282 13.018 91.8282 10.95V1.59997H95.2382V10.598C95.2382 11.0233 95.2455 11.3606 95.2602 11.61C95.2748 11.8593 95.3555 12.1966 95.5022 12.622C95.6488 13.0473 95.8688 13.4066 96.1622 13.7C96.8222 14.36 97.8562 14.69 99.2642 14.69C100.672 14.69 101.706 14.36 102.366 13.7C102.66 13.4066 102.88 13.0473 103.026 12.622C103.173 12.1966 103.254 11.8593 103.268 11.61C103.283 11.3606 103.29 11.0233 103.29 10.598V1.59997H106.7Z" fill="#1B1B1B"/>
<path d="M113.571 4.19597V14.404H116.233C118.389 14.404 119.936 13.9713 120.875 13.106C121.858 12.1966 122.349 10.9206 122.349 9.27797C122.349 7.70863 121.916 6.4913 121.051 5.62597C120.098 4.67264 118.624 4.19597 116.629 4.19597H113.571ZM110.161 1.59997H117.003C120.098 1.59997 122.386 2.31863 123.867 3.75597C125.231 5.0613 125.913 6.9093 125.913 9.29997C125.913 11.632 125.224 13.4873 123.845 14.866C122.921 15.7313 121.836 16.3033 120.589 16.582C119.342 16.8606 117.949 17 116.409 17H110.161V1.59997Z" fill="#1B1B1B"/>
<path d="M128.767 1.59997H132.177V17H128.767V1.59997Z" fill="#1B1B1B"/>
<path d="M143.995 3.75597C142.44 3.75597 141.186 4.2033 140.233 5.09797C139.191 6.0953 138.671 7.49597 138.671 9.29997C138.671 11.0893 139.191 12.4826 140.233 13.48C141.171 14.3893 142.425 14.844 143.995 14.844C145.549 14.844 146.811 14.3893 147.779 13.48C148.805 12.4826 149.319 11.0893 149.319 9.29997C149.319 7.49597 148.805 6.0953 147.779 5.09797C146.825 4.2033 145.564 3.75597 143.995 3.75597ZM144.017 1.15997C146.686 1.15997 148.886 1.90797 150.617 3.40397C152.186 4.87064 152.971 6.83597 152.971 9.29997C152.971 11.7493 152.186 13.7146 150.617 15.196C148.974 16.692 146.774 17.44 144.017 17.44C141.259 17.44 139.059 16.692 137.417 15.196C135.833 13.7146 135.041 11.7493 135.041 9.29997C135.041 6.85064 135.833 4.8853 137.417 3.40397C139.059 1.90797 141.259 1.15997 144.017 1.15997Z" fill="#1B1B1B"/>
</svg>
